<?xml version="1.0" standalone="no"?>
<!DOCTYPE svg PUBLIC "-//W3C//DTD SVG 20010904//EN"
 "http://www.w3.org/TR/2001/REC-SVG-20010904/DTD/svg10.dtd">
<svg version="1.0" xmlns="http://www.w3.org/2000/svg"
 width="2515.000000pt" height="2297.000000pt" viewBox="0 0 2515.000000 2297.000000"
 preserveAspectRatio="xMidYMid meet">

<g transform="translate(0.000000,2297.000000) scale(0.100000,-0.100000)"
fill="#000000" stroke="none">
<path d="M11565 22930 c-1303 -309 -2074 -1239 -2399 -2895 -172 -881 -215
-1930 -141 -3495 38 -799 41 -1112 14 -1485 -65 -924 -354 -1517 -904 -1855
-224 -138 -571 -259 -895 -311 -103 -17 -367 -17 -460 0 -471 85 -770 449
-900 1091 -67 331 -84 591 -78 1178 4 410 3 452 -11 448 -9 -3 -70 -19 -136
-36 -167 -44 -470 -146 -660 -223 -1219 -493 -2276 -1362 -3102 -2552 -928
-1337 -1498 -3047 -1571 -4715 -5 -102 -7 -962 -4 -1912 l4 -1728 12284 0
12284 0 0 313 c0 499 27 1211 71 1892 18 290 33 488 108 1450 53 669 64 898
65 1310 1 400 -7 542 -45 835 -113 883 -480 1663 -1214 2585 -320 402 -662
779 -1206 1329 l-346 350 -33 -99 c-49 -148 -178 -468 -265 -655 -388 -840
-885 -1459 -1366 -1701 -609 -306 -1107 2 -1273 788 -88 418 -83 916 15 1553
79 515 101 743 101 1055 1 260 -13 416 -57 630 -115 569 -450 1247 -932 1890
-622 829 -1386 1456 -2113 1736 -41 16 -77 29 -81 29 -3 0 -9 -154 -12 -342
-5 -332 -17 -499 -52 -728 -176 -1169 -776 -1883 -1691 -2016 -132 -19 -400
-21 -539 -4 -425 51 -861 224 -1212 483 -201 148 -452 420 -620 672 -371 556
-635 1292 -762 2120 -87 569 -99 1183 -35 1750 51 450 142 816 320 1278 8 23
-5 22 -151 -13z m-5393 -10139 c-15 -189 -154 -2273 -161 -2426 -28 -534 -46
-1015 -66 -1735 -24 -872 -47 -1171 -111 -1421 -140 -560 -460 -898 -1095
-1159 -326 -134 -679 -215 -1083 -250 -66 -6 -244 -10 -395 -10 -600 0 -1187
74 -1998 251 l-102 22 -5 51 c-3 28 -12 182 -21 341 -15 277 -52 816 -78 1143
-9 110 -9 152 -1 152 6 0 77 -25 158 -55 458 -170 808 -261 1145 -296 179 -19
481 -7 611 24 339 80 538 229 674 504 79 160 115 307 156 643 82 682 150 2352
150 3726 l0 531 1113 0 1112 0 -3 -36z m11418 -1601 c63 -12 115 -22 117 -23
1 -1 7 -173 12 -382 6 -209 20 -562 31 -785 11 -223 20 -433 20 -467 0 -61 0
-62 -23 -54 -34 13 -205 49 -289 62 -180 25 -462 8 -634 -40 -230 -65 -465
-238 -604 -445 -189 -283 -261 -580 -305 -1261 -34 -539 -43 -1393 -19 -1770
l7 -100 -1024 1 -1023 1 2 39 c1 21 38 543 81 1159 110 1545 135 2171 130
3221 l-4 741 969 -1 969 0 -7 -200 c-3 -111 -9 -239 -12 -286 -4 -47 -4 -83
-2 -80 168 189 340 350 468 435 226 151 451 231 725 259 83 8 304 -4 415 -24z
m4170 20 c466 -28 864 -112 1155 -245 212 -96 421 -262 526 -416 101 -150 167
-351 190 -579 17 -180 6 -433 -61 -1355 -56 -781 -83 -1343 -116 -2465 l-6
-225 -1004 0 c-998 0 -1003 0 -999 20 21 92 81 932 120 1675 13 261 26 502 28
536 l4 61 -126 -58 c-116 -54 -234 -95 -791 -273 -315 -101 -469 -189 -572
-324 -155 -203 -98 -494 119 -609 105 -56 167 -68 373 -68 199 0 252 8 451 65
57 16 104 28 105 27 1 -1 -16 -49 -38 -107 -53 -143 -162 -486 -243 -770 -37
-129 -69 -237 -72 -239 -7 -9 -324 -50 -477 -62 -227 -17 -681 -7 -856 20
-443 68 -727 195 -961 430 -197 197 -342 465 -410 760 -30 127 -37 377 -15
512 49 296 208 591 449 832 225 227 480 373 901 516 282 96 546 164 1046 266
650 132 876 208 988 329 76 82 108 184 92 297 -23 164 -152 274 -377 321 -88
18 -123 19 -338 15 -268 -6 -443 -26 -725 -83 -335 -67 -721 -177 -1114 -319
-115 -41 -210 -74 -211 -72 -1 1 19 119 46 262 26 143 71 427 100 630 28 204
54 373 58 378 9 10 426 95 711 146 796 141 1529 202 2050 171z m-12416 -160
c-3 -19 -38 -451 -79 -960 -41 -509 -82 -1010 -90 -1115 -26 -311 -31 -735
-11 -885 36 -267 115 -418 276 -525 212 -141 489 -165 748 -65 267 103 442
308 551 645 105 320 150 831 212 2376 l23 566 1013 -1 c1009 -1 1013 -1 1013
-21 0 -11 -7 -92 -15 -180 -127 -1393 -214 -3008 -253 -4674 l-7 -285 -962 0
-963 -1 0 338 c0 185 -3 337 -7 336 -5 0 -23 -19 -41 -42 -213 -268 -399 -423
-657 -547 -317 -153 -664 -220 -1133 -220 -643 -1 -1113 153 -1449 473 -201
192 -300 375 -357 657 -50 250 -49 420 8 1230 47 672 66 991 91 1545 13 292
19 475 41 1211 l6 180 1023 0 1023 0 -4 -36z"/>
<path d="M1830 3370 c-343 -25 -689 -117 -930 -247 -517 -278 -809 -705 -880
-1286 -19 -147 -8 -474 19 -610 74 -365 232 -625 509 -835 265 -201 531 -307
922 -369 91 -14 174 -18 400 -18 283 0 392 8 690 45 217 28 196 18 204 97 8
79 68 467 94 604 l18 95 -135 -33 c-261 -63 -416 -85 -647 -90 -232 -6 -350 7
-482 51 -392 134 -613 487 -572 916 24 255 114 454 284 628 121 125 247 203
424 262 253 85 573 84 977 -1 77 -16 155 -32 173 -36 l32 -6 0 54 c0 30 -4
137 -10 239 -5 102 -13 246 -16 322 l-6 136 -61 11 c-125 23 -446 60 -602 71
-175 11 -246 11 -405 0z"/>
<path d="M8640 3224 c0 -83 -3 -211 -6 -285 l-7 -134 467 0 466 0 0 25 c0 37
19 383 25 470 l6 75 -476 0 -475 0 0 -151z"/>
<path d="M4387 2885 c-4 -236 -11 -542 -17 -680 -25 -609 -87 -1592 -120
-1917 -11 -106 -20 -200 -20 -208 0 -13 59 -15 475 -15 l475 0 4 40 c3 22 8
128 11 235 15 518 59 920 118 1095 74 216 201 340 385 375 98 20 199 9 276
-29 159 -78 191 -204 167 -646 -20 -358 -65 -902 -86 -1035 l-6 -35 496 0 495
0 0 173 c0 96 16 424 36 730 42 644 48 936 21 1052 -29 128 -77 213 -171 306
-68 67 -101 91 -178 128 -275 134 -748 149 -1058 32 -119 -44 -215 -111 -317
-221 -48 -52 -89 -93 -90 -91 -8 7 64 961 82 1101 l5 40 -488 0 -489 0 -6
-430z"/>
<path d="M14480 3105 c0 -772 -69 -2316 -128 -2875 l-18 -165 477 0 476 0 6
485 c6 485 14 712 42 1295 25 500 70 1201 91 1410 l6 60 -476 0 -476 0 0 -210z"/>
<path d="M12090 2554 c-157 -11 -333 -42 -440 -76 -152 -49 -323 -159 -434
-278 -306 -331 -417 -925 -270 -1438 95 -332 343 -587 675 -695 150 -49 253
-62 519 -61 258 0 383 12 605 57 l109 22 59 359 c32 197 56 360 54 363 -3 2
-54 -11 -114 -30 -214 -69 -494 -96 -639 -62 -190 44 -305 149 -357 323 -27
93 -30 318 -4 412 42 155 127 266 254 333 111 58 177 71 348 71 168 0 258 -14
453 -70 68 -20 125 -34 128 -32 4 5 -22 488 -34 628 l-7 85 -130 27 c-71 15
-188 34 -260 42 -134 16 -418 27 -515 20z"/>
<path d="M19525 2553 c-127 -10 -244 -28 -350 -55 -359 -90 -600 -284 -760
-613 -176 -360 -208 -775 -89 -1140 103 -313 332 -547 638 -650 198 -67 396
-90 756 -90 303 0 410 9 675 53 l160 27 22 135 c13 74 39 227 58 339 20 112
34 205 32 207 -1 2 -68 -15 -147 -37 -416 -114 -714 -143 -927 -89 -268 69
-403 230 -403 480 l0 70 834 0 834 0 6 28 c26 120 33 311 15 439 -35 257 -120
434 -288 596 -100 96 -204 162 -329 207 -189 68 -523 111 -737 93z m272 -574
c125 -48 191 -156 201 -331 l5 -98 -397 0 c-218 0 -396 2 -396 6 0 30 38 162
62 212 53 113 169 207 288 232 64 13 170 3 237 -21z"/>
<path d="M23946 2549 c-108 -11 -272 -49 -358 -84 -108 -44 -199 -105 -297
-199 l-94 -91 7 110 c4 61 9 133 12 160 l6 50 -475 0 -475 0 -6 -140 c-3 -77
-8 -234 -11 -350 -15 -578 -57 -1216 -110 -1701 -14 -122 -25 -225 -25 -230 0
-5 213 -9 485 -9 l484 0 5 50 c3 28 8 140 11 250 7 250 30 591 51 755 44 345
144 530 340 626 75 37 82 39 178 39 88 0 108 -3 157 -26 154 -72 208 -198 209
-479 0 -193 -21 -621 -56 -1125 l-7 -90 482 0 481 0 0 151 c0 150 25 730 56
1299 27 496 -3 631 -177 806 -61 62 -94 86 -170 123 -111 54 -257 91 -414 106
-123 11 -161 11 -289 -1z"/>
<path d="M8606 2415 c-3 -44 -8 -226 -11 -405 -12 -694 -46 -1319 -100 -1808
-8 -74 -15 -135 -15 -135 0 -1 229 -2 508 -2 l509 0 6 650 c3 358 11 749 17
870 10 210 43 707 56 845 l6 65 -485 0 -486 0 -5 -80z"/>
<path d="M16045 2415 c-28 -44 -97 -151 -154 -238 -56 -87 -193 -290 -305
-452 l-204 -293 83 -154 c45 -84 155 -283 244 -443 89 -159 216 -398 283 -530
l121 -240 508 0 c280 0 509 1 509 3 0 1 -101 170 -224 375 -223 372 -471 795
-539 917 l-35 65 106 146 c59 80 238 316 398 525 160 208 293 384 296 389 4 7
-170 10 -515 10 l-520 0 -52 -80z"/>
</g>
</svg>
